<?xml version="1.0" encoding="UTF-8" standalone="no"?>
<!-- Generator: Adobe Illustrator 19.0.0, SVG Export Plug-In . SVG Version: 6.00 Build 0)  -->

<svg
   xmlns:dc="http://purl.org/dc/elements/1.1/"
   xmlns:cc="http://creativecommons.org/ns#"
   xmlns:rdf="http://www.w3.org/1999/02/22-rdf-syntax-ns#"
   xmlns:svg="http://www.w3.org/2000/svg"
   xmlns="http://www.w3.org/2000/svg"
   xmlns:sodipodi="http://sodipodi.sourceforge.net/DTD/sodipodi-0.dtd"
   xmlns:inkscape="http://www.inkscape.org/namespaces/inkscape"
   version="1.1"
   id="Layer_1"
   x="0px"
   y="0px"
   viewBox="0 0 222 108"
   style="enable-background:new 0 0 222 108;"
   xml:space="preserve"
   sodipodi:docname="gambero_dark_natale.svg"
   inkscape:export-filename="/home/simone/lobsters/app/assets/images/gambero_dark.png"
   inkscape:export-xdpi="796.75812"
   inkscape:export-ydpi="796.75812"
   inkscape:version="0.92.3 (2405546, 2018-03-11)"><metadata
   id="metadata73"><rdf:RDF><cc:Work
       rdf:about=""><dc:format>image/svg+xml</dc:format><dc:type
         rdf:resource="http://purl.org/dc/dcmitype/StillImage" /><dc:title></dc:title></cc:Work></rdf:RDF></metadata><defs
   id="defs71" /><sodipodi:namedview
   pagecolor="#ffffff"
   bordercolor="#666666"
   borderopacity="1"
   objecttolerance="10"
   gridtolerance="10"
   guidetolerance="10"
   inkscape:pageopacity="0"
   inkscape:pageshadow="2"
   inkscape:window-width="1276"
   inkscape:window-height="1400"
   id="namedview69"
   showgrid="false"
   inkscape:zoom="5.4774775"
   inkscape:cx="70.278105"
   inkscape:cy="107.11469"
   inkscape:window-x="1280"
   inkscape:window-y="18"
   inkscape:window-maximized="0"
   inkscape:current-layer="g66" />
<style
   type="text/css"
   id="style2">
	.st0{fill:#FF4C22;}
	.st1{fill:#FFFFFF;}
	.st2{fill:none;}
	.st3{font-family:'Nunito-Bold';}
	.st4{font-size:22px;}
	.st5{fill:#30ABCB;}
	.st6{font-size:12px;}
</style>
<g
   id="g66">
	<path
   class="st0"
   d="M78.6,42.5c0.3,0,0.6,0,0.9-0.1c0.3-0.1,0.6-0.2,0.9-0.4c0.2-0.1,0.4-0.2,0.5-0.4l0.8-0.8   c-0.5,0.4-1.1,0.8-1.7,1.1c-0.6,0.1-1.5,0.1-1.1,0.1c0.4-0.1,1.1-0.9,1.1-0.9c0.2-0.3,0.5-0.5,0.8-0.7c0.5-0.4,1-0.7,1.6-1   c-0.7,0.4-1.4,0.8-2.1,1.2c-0.4,0.3-0.7,0.6-1,0.9c-0.3,0.2-0.6,0.3-1,0.2c0.8-0.5,1.4-1.1,1.9-1.9c-0.9,0.8-2,1.4-3.1,1.6   c-0.3,0.1-0.6,0.1-0.8,0.1c-0.6,0.2-1.3,0.5-1.9,0.8c-1.1,0.5-2,1.5-2.2,2.7c-0.1,0.3-0.2,0.5-0.3,0.8c2.2-0.7,4.6-1.3,4.6-1.3   c0.8-0.2,1.4-0.7,1.8-1.4c1.1,0,2.2-0.2,3.2-0.4c-0.9,0.1-1.9,0.2-2.8,0.1C78.4,42.7,78.6,42.5,78.6,42.5L78.6,42.5z M78.6,42.5"
   id="path4"
   inkscape:export-xdpi="973.56036"
   inkscape:export-ydpi="973.56036"
   style="fill:#ff4c22;fill-opacity:1" />
	<path
   class="st0"
   d="M62.3,46.7c-0.1-0.3-2-6.4-0.2-8.8c0.2-0.1,0.2-0.3,0.4-0.4h-1.1c-3.3,0-6.5,1-9.1,2.9v0.1   c0.3,2.1,1.1,3.7,2.5,4.5c0.8,0.5,1.3,1.5,1.3,2.4v0.2c0,1.1,0.5,2.1,1.3,2.8l0.1,0.1c0.1-0.1,0.3-0.3,0.4-0.4   c1.4-1.2,3.2-1.9,5.1-1.7h0.1C62.8,47.9,62.5,47.3,62.3,46.7L62.3,46.7z M62.3,46.7"
   id="path6"
   inkscape:export-xdpi="973.56036"
   inkscape:export-ydpi="973.56036"
   style="fill:#ff4c22;fill-opacity:1" />
	<path
   class="st0"
   d="M48.8,63.2c0.6-0.6,1.5-0.8,2.3-0.6c0.1,0.1,2.9,0.8,4.2-2.8c-0.4-1.3-0.5-2.7-0.5-4.1v-0.2   c-0.7-0.2-1.2-0.6-1.7-1.1c-0.8-0.7-1.8-1-2.8-0.8c-2.1,0.4-4.2-0.5-5.7-1.4c-0.3,1.2-0.4,2.5-0.4,3.8c0,2.9,0.8,5.8,2.3,8.2   C47.5,64.1,48.2,63.7,48.8,63.2L48.8,63.2z M48.8,63.2"
   id="path8"
   inkscape:export-xdpi="973.56036"
   inkscape:export-ydpi="973.56036"
   style="fill:#ff4c22;fill-opacity:1" />
	<path
   class="st0"
   d="M44.9,51.8c2,1.2,3.8,1.7,5.4,1.4c1.1-0.2,2.2,0.2,3.1,0.9l0.1,0.1c0.4,0.4,0.9,0.6,1.5,0.8   c0.3-1.6,1.1-3.1,2.2-4.4c-1-0.8-1.5-2-1.4-3.2c0-0.8-0.4-1.6-1.1-2.1c-1.8-1.2-2.4-3.3-2.6-4.8C48.4,43.4,45.9,47.4,44.9,51.8   L44.9,51.8z M44.9,51.8"
   id="path10"
   inkscape:export-xdpi="973.56036"
   inkscape:export-ydpi="973.56036"
   style="fill:#ff4c22;fill-opacity:1" />
	<path
   class="st0"
   d="M59,68.6c-0.1-0.8,0.2-1.7,0.8-2.2c0.4-0.3,0.7-0.7,0.8-1.1l-1-0.4c-2-0.8-3.5-2.4-4.1-4.4   C54,64,51.1,63.1,51,63.1c-0.7-0.2-1.4,0-1.9,0.5c-0.6,0.6-1.4,0.9-2.2,1.1c2.5,3.9,6.3,6.7,10.7,8C58.5,71.6,59.1,70.1,59,68.6   L59,68.6z M59,68.6"
   id="path12"
   inkscape:export-xdpi="973.56036"
   inkscape:export-ydpi="973.56036"
   style="fill:#ff4c22;fill-opacity:1" />
	<path
   class="st0"
   d="M59,68.6c-0.1-0.8,0.2-1.7,0.8-2.2c0.4-0.3,0.7-0.7,0.8-1.1l-1-0.4c-2-0.8-3.5-2.4-4.1-4.4   C54,64,51.1,63.1,51,63.1c-0.7-0.2-1.4,0-1.9,0.5c-0.6,0.6-1.4,0.9-2.2,1.1c2.5,3.9,6.3,6.7,10.7,8C58.5,71.6,59.1,70.1,59,68.6   L59,68.6z M59,68.6"
   id="path14"
   inkscape:export-xdpi="973.56036"
   inkscape:export-ydpi="973.56036"
   style="fill:#ff4c22;fill-opacity:1" />
	<path
   class="st0"
   d="M59,68.6c-0.1-0.8,0.2-1.7,0.8-2.2c0.4-0.3,0.7-0.7,0.8-1.1l-1-0.4c-2-0.8-3.5-2.4-4.1-4.4   C54,64,51.1,63.1,51,63.1c-0.7-0.2-1.4,0-1.9,0.5c-0.6,0.6-1.4,0.9-2.2,1.1c2.5,3.9,6.3,6.7,10.7,8C58.5,71.6,59.1,70.1,59,68.6   L59,68.6z M59,68.6"
   id="path16"
   inkscape:export-xdpi="973.56036"
   inkscape:export-ydpi="973.56036"
   style="fill:#ff4c22;fill-opacity:1" />
	<path
   class="st0"
   d="M83,47.2c-1.1-0.2-2-0.8-2.8-1.6c-0.7-0.7-1.6-1.2-2.6-1.3c-0.3-0.1-0.7,0-1,0.1c-0.1,0.1-0.3,0-0.3-0.1   c0-0.1,0.1-0.3,0.2-0.3c0.4-0.1,0.8-0.1,1.2-0.1c1.1,0.1,2.1,0.6,2.9,1.4c0.6,0.7,1.5,1.2,2.5,1.4c0.9,0.1,1.7-0.2,2.3-0.8   c1.2-1.2,0.9-3.2-0.3-4.5c-1.4-1.6-3.2-2.7-5.2-3.3c-1.3-0.4-2.7-0.6-4.1-0.8c-1.9-0.2-3.7-0.6-5.4-1.3c-0.7-0.3-1.4-0.8-2-1.1   c-0.4-0.2-0.8-0.5-1.2-0.8c-0.4-0.3-0.8-0.5-1.1-0.8c-0.8-0.6-1.6-1.1-2.4-1.5h-0.1l-0.2-0.1c-0.1,0-0.1-0.1-0.2-0.1   c0.1,0,0.1,0.1,0.2,0.1l0.3,0.1l0.6,0.3c0.4,0.2,0.9,0.4,1.3,0.7l1.3,0.8c0.5,0.3,1,0.6,1.5,0.9c0.5,0.3,1,0.6,1.5,0.8   c1.7,0.7,3.6,1.2,5.5,1.4c1.6,0.1,3.2,0.4,4.7,0.9c2.1,0.6,3.9,1.8,5.3,3.4c1.2,1.4,1.6,3.8,0.2,5.1C84.9,46.9,84,47.3,83,47.2   L83,47.2z M83,47.2"
   id="path18"
   inkscape:export-xdpi="973.56036"
   inkscape:export-ydpi="973.56036"
   style="fill:#ff4c22;fill-opacity:1" />
	<path
   class="st0"
   d="M83.9,45.7c-0.9-0.1-1.7-0.5-2.4-1c-0.9-0.6-2-0.8-3.1-0.6c-0.4,0-0.7,0.1-1.1,0.3c-0.1,0-0.2,0-0.3-0.1   c0-0.1,0-0.2,0.1-0.3c0.4-0.2,0.8-0.3,1.2-0.3c1.2-0.2,2.4,0.1,3.4,0.8c0.9,0.6,1.9,0.9,3,0.9c0.9-0.1,1.8-0.6,2.3-1.4   c1-1.6,0.1-3.6-1.4-4.7c-1.9-1.3-4-2-6.3-2.2c-1.5-0.1-3,0-4.5,0.2c-1,0.1-2.1,0.2-3.1,0.2L70,37.3c-1.7-0.3-3.3-0.8-4.8-1.5   c-0.8-0.3-1.6-0.7-2.5-1c-0.5-0.2-1.1-0.4-1.7-0.4c0.1,0,0.2,0,0.3,0l0.4,0.1c0.5,0.1,0.9,0.2,1.4,0.4c0.9,0.3,1.8,0.7,2.7,1   c0.4,0.2,0.9,0.3,1.3,0.5h0.1c1.7,0.5,3.5,0.7,5.3,0.6c0.8,0,1.5-0.1,2.3-0.2c1.5-0.2,3.1-0.3,4.6-0.2c2.3,0.1,4.6,0.9,6.5,2.2   c1.7,1.2,2.7,3.5,1.5,5.4c-0.6,0.9-1.6,1.5-2.6,1.6C84.5,45.7,84.2,45.7,83.9,45.7L83.9,45.7z M83.9,45.7"
   id="path20"
   inkscape:export-xdpi="973.56036"
   inkscape:export-ydpi="973.56036"
   style="fill:#ff4c22;fill-opacity:1" />
	<path
   class="st0"
   d="M67.3,54.4c1.2,0,2.4,0.1,3.6,0.2c1.8,0.2,3.6,0.6,5.3,1.1c-1.4-0.7-2.9-1.2-4.5-1.4c-2.5-0.4-4.6-0.4-5.5,0.1   C66.5,54.5,66.9,54.4,67.3,54.4L67.3,54.4z M67.3,54.4"
   id="path22"
   inkscape:export-xdpi="973.56036"
   inkscape:export-ydpi="973.56036"
   style="fill:#ff4c22;fill-opacity:1" />
	<path
   class="st0"
   d="M71,55.9c3.5,0,6.3,0.5,6.3,1.1c0,0.6-2.8,1-6.3,1c-3.5,0-6.3-0.5-6.3-1.1C64.7,56.4,67.5,55.9,71,55.9   L71,55.9z M71,55.9"
   id="path24"
   inkscape:export-xdpi="973.56036"
   inkscape:export-ydpi="973.56036"
   style="fill:#ff4c22;fill-opacity:1" />
	<path
   class="st0"
   d="M77.5,57.1c0,0.1-0.1,0.1-0.1,0.2c-0.3,0.4-1.5,0.6-3,0.8c0,0.1-0.1,0.2-0.1,0.4c-0.2,0.7-0.5,1.4-0.9,2   c-0.6,0.8-1,1.4-1.4,1.9c0.1,0.2,0.2,0.3,0.2,0.5c0.3,0.7,0.8,1.2,1.5,1.3c1,0.2,2,0.8,2.7,1.6c0.9-2.2,1.4-4.5,1.3-6.9   C77.9,58.2,77.8,57.6,77.5,57.1L77.5,57.1z M77.5,57.1"
   id="path26"
   inkscape:export-xdpi="973.56036"
   inkscape:export-ydpi="973.56036"
   style="fill:#ff4c22;fill-opacity:1" />
	<path
   class="st0"
   d="M71.1,55.6c1.9,0,3.7,0.2,5.5,0.6c-1.8-0.7-3.6-1.1-5.5-1.2c-3.7-0.4-6.8-0.2-7,0.4c-0.1,0.2,0.2,0.5,0.9,0.8   C65.9,55.7,68.7,55.6,71.1,55.6L71.1,55.6z M71.1,55.6"
   id="path28"
   inkscape:export-xdpi="973.56036"
   inkscape:export-ydpi="973.56036"
   style="fill:#ff4c22;fill-opacity:1" />
	<path
   class="st0"
   d="M68.7,46.1c0.2,0,0.6,0.3,0.9,0.4c1.7,1.2,3.2,2.7,4.4,4.5c0.2,0.3,0.6,0.8,0.8,1.2c-0.1,0-0.2-0.2-0.3-0.3   l-0.5-0.6c-0.7-0.9-1.4-1.8-2.2-2.5c-0.5-0.4-1.1-0.8-1.7-0.9c-0.3-0.1-0.5-0.2-0.8-0.3c-0.2-0.1-0.3-0.2-0.5-0.3   c-0.1-0.1-0.5-0.5-0.5-0.4C68.3,46.5,68.5,46.3,68.7,46.1C68.6,46.1,68.7,46.1,68.7,46.1L68.7,46.1z M68.7,46.1"
   id="path30"
   inkscape:export-xdpi="973.56036"
   inkscape:export-ydpi="973.56036"
   style="fill:#ff4c22;fill-opacity:1" />
	<path
   class="st0"
   d="M70.9,45.7c0.2,0,0.5,0.2,0.7,0.4c1.1,0.9,2,2,2.6,3.3c0.1,0.2,0.3,0.6,0.4,0.8c-0.1,0-0.1-0.1-0.2-0.3   L74,49.5c-0.4-0.7-0.8-1.3-1.3-1.9c-0.3-0.4-0.8-0.6-1.2-0.8c-0.2-0.1-0.4-0.1-0.6-0.2c-0.1-0.1-0.2-0.2-0.3-0.2   c-0.1-0.1-0.2-0.2-0.3-0.3C70.4,46,70.6,45.8,70.9,45.7L70.9,45.7z M70.9,45.7"
   id="path32"
   inkscape:export-xdpi="973.56036"
   inkscape:export-ydpi="973.56036"
   style="fill:#ff4c22;fill-opacity:1" />
	<path
   class="st0"
   d="M72.6,52.7c-0.1,0-0.2-0.2-0.3-0.3l-0.5-0.6c-0.7-0.9-1.5-1.8-2.3-2.5c-0.5-0.4-1.1-0.8-1.8-0.9   c-0.3-0.1-0.5-0.2-0.8-0.3c-0.2-0.1-0.3-0.2-0.5-0.3c-0.1,0-0.5-0.4-0.5-0.4c0.2-0.2,0.3-0.4,0.5-0.7c0,0,0,0,0.1,0   c0.2,0,0.7,0.3,0.9,0.4c1.8,1.2,3.3,2.7,4.5,4.5C72.1,51.9,72.4,52.4,72.6,52.7L72.6,52.7z M72.6,52.7"
   id="path34"
   inkscape:export-xdpi="973.56036"
   inkscape:export-ydpi="973.56036"
   style="fill:#ff4c22;fill-opacity:1" />
	<path
   class="st0"
   d="M68.6,52.9c-0.1,0-0.1-0.2-0.2-0.3s-0.2-0.4-0.3-0.5c-0.4-0.8-0.9-1.6-1.4-2.3c-0.3-0.4-0.8-0.7-1.3-0.9   c-0.2-0.1-0.4-0.2-0.6-0.3c-0.1-0.1-0.2-0.2-0.4-0.3c0,0-0.3-0.4-0.4-0.4c0.2-0.2,0.4-0.3,0.6-0.4h0.1c0.2,0,0.5,0.3,0.7,0.5   c1.2,1.2,2.2,2.6,2.8,4.1C68.4,52.2,68.5,52.6,68.6,52.9L68.6,52.9z M68.6,52.9"
   id="path36"
   inkscape:export-xdpi="973.56036"
   inkscape:export-ydpi="973.56036"
   style="fill:#ff4c22;fill-opacity:1" />
	<path
   class="st0"
   d="M62.5,38c-1.6,2.2,0.2,8.3,0.2,8.4c0.2,0.7,0.5,1.3,0.9,1.8c2-0.2,3.9-0.8,5.7-1.6c0.6-0.3,1.3-0.5,1.9-0.7   c0.2-0.3,0.3-0.7,0.5-1.1c0.3-1.3,1.2-2.3,2.4-2.9c0.4-0.2,0.8-0.4,1.2-0.5h-0.1L75,41h0.1l2.2-0.3c2.1-0.4,2.2-0.8,2.2-0.8   c-2.1,0-4.2-0.1-6.2-0.3l-3.1-0.5c-1.5-0.6-3-1.1-4.6-1.4c-0.8-0.1-1.6-0.2-2.5-0.2C62.9,37.6,62.6,37.8,62.5,38L62.5,38z M62.5,38   "
   id="path38"
   inkscape:export-xdpi="973.56036"
   inkscape:export-ydpi="973.56036"
   style="fill:#ff4c22;fill-opacity:1" />
	<path
   class="st1"
   d="M76.2,41.4c0,0.6-0.5,1.1-1.1,1.1c-0.6,0-1.1-0.5-1.1-1.1c0-0.6,0.5-1,1.1-1C75.7,40.4,76.2,40.9,76.2,41.4   L76.2,41.4z M76.2,41.4"
   id="path40"
   inkscape:export-xdpi="973.56036"
   inkscape:export-ydpi="973.56036"
   style="fill:#001200;fill-opacity:1" />
	<path
   d="M76.4,41.4c0,0.5-0.4,1-1,1c-0.5,0-1-0.4-1-1s0.4-1,1-1C75.9,40.4,76.4,40.8,76.4,41.4L76.4,41.4z M76.4,41.4"
   id="path42"
   inkscape:export-xdpi="973.56036"
   inkscape:export-ydpi="973.56036"
   style="fill:#000000;fill-opacity:0" />
	<path
   class="st1"
   d="M76.1,41.1c0,0.2-0.1,0.3-0.3,0.3c-0.2,0-0.3-0.1-0.3-0.3c0-0.2,0.1-0.3,0.3-0.3   C75.9,40.8,76.1,40.9,76.1,41.1L76.1,41.1z M76.1,41.1"
   id="path44"
   inkscape:export-xdpi="973.56036"
   inkscape:export-ydpi="973.56036"
   style="fill:#ffffff;fill-opacity:1" />
	<path
   class="st0"
   d="M61,56.2c-0.5,0.3-1,0.5-1.5,0.8c-0.4,0.2-1.6,0.3-2.8,0.6c-0.3,0.6-0.9,1-1.5,1.2c-1,0.3-2,0.2-2.1-0.3   c-0.2-0.5,0.5-1.2,1.5-1.6c0.5-0.2,1-0.2,1.5-0.2c0.1,0,0.3-0.2,0.4-0.2l0.4-0.2c0.3-0.1,0.6-0.2,0.9-0.2c0.7-0.1,1.5-0.1,2.2,0   C60.4,56.1,60.7,56.1,61,56.2L61,56.2z M61,56.2"
   id="path46"
   inkscape:export-xdpi="973.56036"
   inkscape:export-ydpi="973.56036"
   style="fill:#ff4c22;fill-opacity:1" />
	<path
   class="st0"
   d="M62,61c-0.4,0.5-2,1.2-3.1,2.4c0.1,0.5,0,0.9-0.2,1.4c-0.4,1-1.3,1.5-1.9,1.3c-0.7-0.2-0.8-1.3-0.4-2.2   c0.4-0.9,1.2-1.5,1.8-1.3c0.2-0.2,0.3-0.5,0.5-0.8c0.2-0.3,0.4-0.5,0.6-0.8c0.3-0.3,0.7-0.6,1.1-0.8c0.8-0.5,1.8-0.7,2.7-0.7   C62.8,60,62.4,60.5,62,61L62,61z M62,61"
   id="path48"
   inkscape:export-xdpi="973.56036"
   inkscape:export-ydpi="973.56036"
   style="fill:#ff4c22;fill-opacity:1" />
	<path
   class="st0"
   d="M64.7,63.9c-0.1,0.2-0.2,0.5-0.2,0.8c0.3,0.5,0.5,1.1,0.4,1.6c0,0.8-0.5,1.5-1.3,1.8h-0.2   c-0.7-0.1-1.2-1-1.1-2.1c0-0.6,0.3-1.1,0.8-1.5c0-0.5,0.1-1,0.2-1.5c0.2-0.5,0.4-0.9,0.7-1.3c0.3-0.6,0.8-1.1,1.4-1.4   c0,0.1,0,0.2,0,0.3c0,0.2,0,0.3,0,0.5c0,0.4,0,0.8-0.1,1.2C65.1,62.7,64.9,63.3,64.7,63.9L64.7,63.9z M64.7,63.9"
   id="path50"
   inkscape:export-xdpi="973.56036"
   inkscape:export-ydpi="973.56036"
   style="fill:#ff4c22;fill-opacity:1" />
	<path
   class="st0"
   d="M63.6,68L63.6,68L63.6,68L63.6,68z M63.6,68"
   id="path52"
   inkscape:export-xdpi="973.56036"
   inkscape:export-ydpi="973.56036"
   style="fill:#ff4c22;fill-opacity:1" />
	<path
   class="st0"
   d="M69.3,70.3c-0.8-0.4-1.4-1.2-1.4-2.1c-0.1-1-0.7-1.9-1.5-2.5c-1.8,0.3-3.7,0.1-5.4-0.5   c-0.2,0.5-0.6,0.9-0.9,1.4c-0.5,0.5-0.8,1.2-0.7,1.9c0.1,1.6-0.4,3.1-1.4,4.3c1.4,0.4,2.9,0.6,4.4,0.6c2.9,0.1,5.8-0.6,8.4-1.9   C70.4,71.1,69.9,70.7,69.3,70.3L69.3,70.3z M69.3,70.3"
   id="path54"
   inkscape:export-xdpi="973.56036"
   inkscape:export-ydpi="973.56036"
   style="fill:#ff4c22;fill-opacity:1" />
	<path
   class="st0"
   d="M73.7,64.5c-0.8-0.2-1.5-0.7-1.9-1.5l-0.1-0.3c-0.4,0.5-0.8,0.9-1.3,1.3c-0.3-0.5-0.9-0.8-1.5-0.8   c-0.3-0.8-0.5-1.6-0.6-1.9c-0.3-0.4-0.6-0.9-0.9-1.2c0,0-0.1,0.3-0.1,0.3c0,0-0.1,0.2-0.1,0.3c0,0.2,0,0.4,0,0.6   c0,0.4,0,0.9,0.1,1.3c0.2,0.5,0.4,1.1,0.8,1.5c-0.1,0.4,0,0.8,0.1,1.2c-0.4,0.2-0.9,0.3-1.3,0.5c0.7,0.6,1.2,1.5,1.3,2.5   c0.1,0.7,0.5,1.4,1.1,1.8l0.1,0c0.6,0.4,1.1,0.8,1.6,1.4c1.1-0.6,2-1.3,2.9-2.1c0.9-0.9,1.7-2,2.2-3.1   C75.7,65.2,74.8,64.6,73.7,64.5L73.7,64.5z M73.7,64.5"
   id="path56"
   inkscape:export-xdpi="973.56036"
   inkscape:export-ydpi="973.56036"
   style="fill:#ff4c22;fill-opacity:1" />
	<rect
   x="79.6"
   y="50.2"
   class="st2"
   width="82.8"
   height="17.2"
   id="rect58"
   inkscape:export-xdpi="973.56036"
   inkscape:export-ydpi="973.56036" />
	<text
   class="st3 st4"
   id="text60"
   style="-inkscape-font-specification:ori1Uni;font-family:ori1Uni;font-weight:normal;font-style:normal;font-stretch:normal;font-variant:normal;fill:#d7d7d7;fill-opacity:0.97570848;"
   inkscape:export-xdpi="973.56036"
   inkscape:export-ydpi="973.56036"
   transform="matrix(1 0 0 1 79.5819 65.851)"><tspan
     style="fill:#d7d7d7;-inkscape-font-specification:Nunito;font-family:Nunito;font-weight:bold;font-style:normal;font-stretch:normal;font-variant:normal;fill-opacity:0.97570848;"
     id="tspan136">ambe.ro</tspan></text>





	<rect
   x="160.1"
   y="42"
   class="st2"
   width="28.8"
   height="10.3"
   id="rect62" />
	
<path
   inkscape:connector-curvature="0"
   style="fill:#e14b4b;stroke-width:0.02445128"
   d="m 67.747516,35.78276 c 0,0 -0.623433,-2.545898 -3.117547,-3.612489 0,0 -0.982414,-1.480909 -4.043321,-0.572688 0,0 -0.90702,0.631875 -1.058191,0.987006 0,0 -1.341395,0.237154 -1.341395,1.856036 0,0 -0.264451,0.414718 -0.189058,1.441316 l -0.20781,2.19157 1.001549,0.809441 0.05664,-0.394722 c 0,0 0.963662,-1.520502 1.020303,-1.994009 0,0 0.264452,-0.217157 0.264452,0.315937 l -0.264452,0.829039 7.349926,-0.595084 z"
   id="path2217" /><g
   transform="matrix(-0.02391931,0,0,0.02499509,69.03581,29.446031)"
   id="g2225"><path
     inkscape:connector-curvature="0"
     style="fill:#d03f3e"
     d="m 399.636,206.895 c -9.008,-39.904 -22.176,-78.864 -39.44,-116.032 8.064,5.776 21.424,15.824 29.952,24.832 5.792,30.048 8.912,60.576 9.488,91.2 z"
     id="path2219" /><path
     inkscape:connector-curvature="0"
     style="fill:#d03f3e"
     d="m 283.316,119.487 c 3.504,-0.192 6.544,1.232 9.2,3.504 -3.024,-1.232 -6.16,-2.368 -9.2,-3.504 z"
     id="path2221" /><path
     inkscape:connector-curvature="0"
     style="fill:#d03f3e"
     d="m 383.14,281.871 c -1.136,-0.768 -10.8,-7.296 -10.896,12.512 -4.272,-5.68 -7.872,-12.128 -11.952,-17.92 -11.376,-16.304 -27.872,-28.336 -43.984,-40.096 -30.816,-22.464 -62.56,-45.312 -99.152,-56.112 18.016,-0.944 35.552,5.504 52.32,12.032 33.184,12.896 67.392,27.776 89.296,55.744 -0.096,-18.768 -10.144,-35.84 -19.904,-51.856 -12.8,-21.04 -25.6,-42.096 -38.4,-63.136 -2.176,-3.6 -4.832,-7.488 -7.968,-10.048 14.224,5.408 27.968,12.032 38.672,22.656 14.224,14.128 21.328,33.648 27.584,52.704 9.024,27.504 17.184,55.456 24.384,83.52 z"
     id="path2223" /></g><g
   transform="matrix(-0.02208502,0,0,0.02307831,69.035809,29.925141)"
   id="g2231"><path
     inkscape:connector-curvature="0"
     style="fill:#dae5ef"
     d="m 0.34,359.407 c 0,-12.336 -0.112,1.824 -0.224,-3.344 -0.448,13.872 -0.16,-62.56 11.648,-70.624 8.448,-8.496 16.176,-34.256 22.944,-24.384 5.776,-4.816 9.808,2.288 13.056,-6.208 3.248,-1.696 5.712,-9.36 8.336,-1.2 2.624,-1.888 5.424,5.52 9.344,3.248 3.92,5.856 8.944,2.272 16.064,7.12 0,5.552 2.64,-6.672 6.624,-0.768 4,5.088 9.344,1.056 14.784,-2.224 5.44,-5.696 10.976,-8.912 15.312,-3.536 3.264,3.824 7.808,4.784 12.816,-0.816 4.992,-4.64 10.448,-2.992 15.472,2.224 5.04,7.008 9.664,7.536 13.04,3.008 3.376,4.96 5.472,-1.616 5.472,1.504 0,0.224 1.28,4.768 3.584,-0.144 2.304,-1.264 5.6,2.576 9.648,-0.224 4.048,5.84 8.832,-1.04 14.064,0.016 5.248,-5.312 10.944,-9.6 16.832,0.56 5.888,-4.416 11.952,-2.976 17.936,1.424 5.984,-1.904 11.872,-0.496 17.408,2.608 5.52,-1.264 10.688,7.808 15.2,4.08 4.528,-4.416 8.4,-8.304 11.36,5.888 0,-2.944 1.392,4.064 3.888,0.928 2.496,1.568 6.08,-1.52 10.464,2.608 4.384,-0.336 9.552,2 15.232,4.016 5.664,-6.08 11.824,4.032 18.176,5.184 6.352,3.248 12.896,11.072 19.312,6.064 6.432,-6.256 12.736,3.056 18.64,6.688 5.904,11.312 11.392,2.56 16.16,7.056 4.768,2.352 8.832,0.784 11.856,7.152 0,0.144 2.576,8.416 3.024,8.816 0.832,1.28 1.744,11.008 2.624,10.304 3.568,9.616 5.648,52.752 -0.304,69.744 0,-0.048 -0.704,-2.976 -2.144,2.496 -1.44,0.992 -3.616,-2.208 -6.528,5.296 -2.912,4.08 -6.592,1.728 -11.024,4.752 -4.432,7.472 -9.648,4.192 -15.632,0.88 -5.984,-3.344 -12.768,-5.952 -20.352,-6.32 0,-7.568 -0.448,-2.336 -1.312,-0.448 -0.864,3.968 -2.16,-3.792 -3.856,-1.248 -1.696,-9.664 -3.792,1.072 -6.256,-1.92 -2.48,-2.64 -5.328,0.112 -8.544,-2.432 -3.216,7.92 -6.784,-3.184 -10.688,-2.816 -3.904,-5.696 -8.16,-10.208 -12.72,-3.072 -4.56,0.784 -9.44,-8.992 -14.608,-3.168 -5.168,-5.2 -10.64,5.248 -16.384,-3.136 -5.744,2.32 -11.76,-4.624 -18.016,-2.96 -6.272,-2.4 -12.784,1.328 -19.536,-2.64 -6.752,0.48 -13.728,1.776 -20.912,-2.192 -7.184,-0.848 -14.592,-5.84 -22.176,-1.584 -7.584,-3.136 -15.36,-0.864 -23.296,-0.848 -7.936,-2.8 -16.048,-1.008 -24.304,0.016 -14.416,-3.632 -27.072,-0.896 -38.16,0.208 -11.088,1.248 -20.608,-0.992 -28.784,-1.088 -8.176,-1.968 -15.008,-2.8 -20.72,-1.952 -5.712,6.8 -10.304,-2.944 -13.984,-2.432 -3.68,-1.056 -6.464,-7.216 -8.56,-2.544 -2.096,-0.208 -3.52,-6.016 -4.48,-2.288 -0.96,-1.12 -1.456,0.88 -1.712,-1.648 -0.256,3.28 -0.272,7.824 -0.272,-0.64 0,10.048 -2.816,2.304 -6.064,-2.736 -3.28,0.672 -6.992,5.952 -8.768,-10.304 z"
     id="path2227" /><path
     inkscape:connector-curvature="0"
     style="fill:#dae5ef"
     d="m 505.476,359.663 c 14.112,22.32 3.504,56.384 -18.816,70.496 -22.32,14.112 -51.856,7.44 -65.968,-14.88 -14.112,-22.32 -7.44,-51.856 14.88,-65.968 22.304,-14.112 55.792,-11.984 69.904,10.352 z"
     id="path2229" /></g><g
   transform="matrix(-0.02391931,0,0,0.02499509,69.03581,29.446031)"
   id="g2237"><path
     inkscape:connector-curvature="0"
     style="fill:#cbd6e0"
     d="m 503.716,411.695 c -4.16,7.52 -10.08,13.92 -17.12,18.4 -22.24,14.24 -51.84,7.52 -65.92,-14.88 -14.08,-22.24 -7.52,-51.84 14.88,-65.92 1.12,-0.64 2.08,-1.28 3.2,-1.76 -7.68,14.56 -7.52,32.8 1.92,47.68 13.44,21.44 41.28,28.48 63.04,16.48 z"
     id="path2233" /><path
     inkscape:connector-curvature="0"
     style="fill:#cbd6e0"
     d="m 440.948,348.511 c 0.192,-0.64 0.096,-1.296 -0.112,-1.92 -0.08,0.032 -0.144,0.08 -0.224,0.112 z"
     id="path2235" /></g></g>
</svg>